<svg width="20" height="20" viewBox="0 0 20 20" fill="none" xmlns="http://www.w3.org/2000/svg">
<path d="M16.4167 0.833496H4.7475C4.10417 0.833711 3.48128 1.05946 2.9872 1.47147C2.49312 1.88349 2.15913 2.45568 2.04333 3.0885L0.879164 9.50516C0.806627 9.90156 0.822097 10.3091 0.92448 10.6988C1.02686 11.0886 1.21365 11.4511 1.47164 11.7607C1.72962 12.0703 2.0525 12.3193 2.41741 12.4903C2.78232 12.6613 3.18035 12.75 3.58333 12.7502H7.76333L7.25 14.061C7.03648 14.6349 6.96537 15.2521 7.04277 15.8596C7.12018 16.467 7.34378 17.0466 7.69441 17.5487C8.04504 18.0508 8.51222 18.4603 9.05589 18.7421C9.59955 19.0239 10.2035 19.1697 10.8158 19.1668C10.9922 19.1665 11.1646 19.1152 11.3126 19.0193C11.4606 18.9234 11.5777 18.7868 11.65 18.626L14.2625 12.7502H16.4167C17.146 12.7502 17.8455 12.4604 18.3612 11.9447C18.8769 11.429 19.1667 10.7295 19.1667 10.0002V3.5835C19.1667 2.85415 18.8769 2.15468 18.3612 1.63895C17.8455 1.12323 17.146 0.833496 16.4167 0.833496ZM12.75 11.641L10.2567 17.251C10.0015 17.1738 9.76494 17.0452 9.56141 16.8731C9.35788 16.701 9.19174 16.4891 9.07323 16.2503C8.95472 16.0116 8.88634 15.7511 8.87232 15.4849C8.85829 15.2188 8.8989 14.9525 8.99166 14.7027L9.4775 13.3918C9.58102 13.1148 9.61597 12.8168 9.57936 12.5233C9.54276 12.2298 9.43568 11.9495 9.26727 11.7063C9.09887 11.4632 8.87414 11.2644 8.61225 11.1269C8.35037 10.9894 8.05911 10.9173 7.76333 10.9168H3.58333C3.44866 10.917 3.3156 10.8876 3.19361 10.8306C3.07161 10.7735 2.96369 10.6903 2.8775 10.5868C2.78919 10.4848 2.72451 10.3645 2.68806 10.2346C2.65162 10.1046 2.64431 9.96825 2.66666 9.83516L3.83083 3.4185C3.86988 3.20495 3.98344 3.01219 4.15131 2.87455C4.31917 2.7369 4.53044 2.66329 4.7475 2.66683H12.75V11.641ZM17.3333 10.0002C17.3333 10.2433 17.2368 10.4764 17.0648 10.6483C16.8929 10.8203 16.6598 10.9168 16.4167 10.9168H14.5833V2.66683H16.4167C16.6598 2.66683 16.8929 2.76341 17.0648 2.93531C17.2368 3.10722 17.3333 3.34038 17.3333 3.5835V10.0002Z" fill="#87919C"/>
</svg>
