<svg width="20" height="20" viewBox="0 0 20 20" fill="none" xmlns="http://www.w3.org/2000/svg">
<path d="M11 8.99987H5C4.73478 8.99987 4.48043 9.10523 4.29289 9.29276C4.10536 9.4803 4 9.73465 4 9.99986C4 10.2651 4.10536 10.5194 4.29289 10.707C4.48043 10.8945 4.73478 10.9998 5 10.9998H11C11.2652 10.9998 11.5196 10.8945 11.7071 10.707C11.8946 10.5194 12 10.2651 12 9.99986C12 9.73465 11.8946 9.4803 11.7071 9.29276C11.5196 9.10523 11.2652 8.99987 11 8.99987ZM15 4.99993H5C4.73478 4.99993 4.48043 5.10529 4.29289 5.29282C4.10536 5.48035 4 5.7347 4 5.99992C4 6.26513 4.10536 6.51948 4.29289 6.70701C4.48043 6.89455 4.73478 6.9999 5 6.9999H15C15.2652 6.9999 15.5196 6.89455 15.7071 6.70701C15.8946 6.51948 16 6.26513 16 5.99992C16 5.7347 15.8946 5.48035 15.7071 5.29282C15.5196 5.10529 15.2652 4.99993 15 4.99993ZM17 0H3C2.20435 0 1.44129 0.316066 0.87868 0.878667C0.316071 1.44127 0 2.20432 0 2.99996V12.9998C0 13.7955 0.316071 14.5585 0.87868 15.1211C1.44129 15.6837 2.20435 15.9998 3 15.9998H14.59L18.29 19.7097C18.3834 19.8024 18.4943 19.8757 18.6161 19.9255C18.7379 19.9753 18.8684 20.0005 19 19.9997C19.1312 20.0031 19.2613 19.9757 19.38 19.9197C19.5626 19.8447 19.7189 19.7173 19.8293 19.5536C19.9396 19.3899 19.999 19.1972 20 18.9997V2.99996C20 2.20432 19.6839 1.44127 19.1213 0.878667C18.5587 0.316066 17.7956 0 17 0ZM18 16.5898L15.71 14.2898C15.6166 14.1971 15.5057 14.1238 15.3839 14.074C15.2621 14.0243 15.1316 13.999 15 13.9998H3C2.73478 13.9998 2.48043 13.8944 2.29289 13.7069C2.10536 13.5194 2 13.265 2 12.9998V2.99996C2 2.73475 2.10536 2.4804 2.29289 2.29286C2.48043 2.10533 2.73478 1.99997 3 1.99997H17C17.2652 1.99997 17.5196 2.10533 17.7071 2.29286C17.8946 2.4804 18 2.73475 18 2.99996V16.5898Z" fill="#1373E5"/>
</svg>
