<svg width="309" height="64" viewBox="0 0 309 64" fill="none" xmlns="http://www.w3.org/2000/svg">
<path d="M23.7386 25.5619H15.4735V62.6736H6.15507V25.5619H0.888123V18.0261H6.15507V14.8659C6.15507 9.73403 7.50557 6.00666 10.2066 3.6838C12.9616 1.30692 17.2562 0.118484 23.0903 0.118484V7.81633C20.2813 7.81633 18.3096 8.35653 17.1751 9.43693C16.0407 10.4633 15.4735 12.273 15.4735 14.8659V18.0261H23.7386V25.5619Z" fill="white"/>
<path d="M38.2455 12.1109C36.5708 12.1109 35.1663 11.5437 34.0319 10.4093C32.8975 9.27487 32.3303 7.87035 32.3303 6.19573C32.3303 4.52111 32.8975 3.11659 34.0319 1.98217C35.1663 0.847753 36.5708 0.280542 38.2455 0.280542C39.8661 0.280542 41.2436 0.847753 42.378 1.98217C43.5124 3.11659 44.0796 4.52111 44.0796 6.19573C44.0796 7.87035 43.5124 9.27487 42.378 10.4093C41.2436 11.5437 39.8661 12.1109 38.2455 12.1109ZM42.7831 18.0261V62.6736H33.5457V18.0261H42.7831Z" fill="white"/>
<path d="M79.058 17.2968C82.5693 17.2968 85.7024 18.0261 88.4574 19.4846C91.2665 20.9432 93.4543 23.104 95.0209 25.967C96.5874 28.8301 97.3707 32.2874 97.3707 36.3389V62.6736H88.2143V37.7164C88.2143 33.7189 87.215 30.6668 85.2162 28.56C83.2175 26.3992 80.4895 25.3188 77.0322 25.3188C73.5749 25.3188 70.8199 26.3992 68.7672 28.56C66.7684 30.6668 65.7691 33.7189 65.7691 37.7164V62.6736H56.5316V18.0261H65.7691V23.131C67.2816 21.2943 69.1993 19.8628 71.5222 18.8364C73.8991 17.81 76.411 17.2968 79.058 17.2968Z" fill="white"/>
<path d="M107.695 40.1473C107.695 35.6636 108.613 31.6932 110.45 28.2359C112.341 24.7786 114.88 22.1046 118.067 20.2139C121.308 18.2692 124.873 17.2968 128.763 17.2968C132.274 17.2968 135.326 17.9991 137.919 19.4036C140.566 20.7541 142.673 22.4557 144.24 24.5085V18.0261H153.558V62.6736H144.24V56.0291C142.673 58.1359 140.539 59.8916 137.838 61.2961C135.137 62.7006 132.058 63.4029 128.601 63.4029C124.765 63.4029 121.254 62.4305 118.067 60.4858C114.88 58.4871 112.341 55.732 110.45 52.2207C108.613 48.6554 107.695 44.6309 107.695 40.1473ZM144.24 40.3093C144.24 37.2302 143.591 34.5562 142.295 32.2874C141.052 30.0185 139.405 28.2899 137.352 27.1015C135.299 25.913 133.084 25.3188 130.708 25.3188C128.331 25.3188 126.116 25.913 124.063 27.1015C122.01 28.2359 120.336 29.9375 119.039 32.2063C117.797 34.4212 117.176 37.0681 117.176 40.1473C117.176 43.2264 117.797 45.9274 119.039 48.2503C120.336 50.5731 122.01 52.3558 124.063 53.5982C126.17 54.7867 128.385 55.3809 130.708 55.3809C133.084 55.3809 135.299 54.7867 137.352 53.5982C139.405 52.4098 141.052 50.6812 142.295 48.4123C143.591 46.0895 144.24 43.3885 144.24 40.3093Z" fill="white"/>
<path d="M189.838 17.2968C193.349 17.2968 196.482 18.0261 199.237 19.4846C202.046 20.9432 204.234 23.104 205.801 25.967C207.367 28.8301 208.151 32.2874 208.151 36.3389V62.6736H198.994V37.7164C198.994 33.7189 197.995 30.6668 195.996 28.56C193.997 26.3992 191.269 25.3188 187.812 25.3188C184.355 25.3188 181.6 26.3992 179.547 28.56C177.548 30.6668 176.549 33.7189 176.549 37.7164V62.6736H167.312V18.0261H176.549V23.131C178.062 21.2943 179.979 19.8628 182.302 18.8364C184.679 17.81 187.191 17.2968 189.838 17.2968Z" fill="white"/>
<path d="M237.598 63.4029C234.141 63.4029 231.035 62.7816 228.28 61.5392C225.525 60.2427 223.337 58.5141 221.716 56.3533C220.096 54.1384 219.231 51.6805 219.123 48.9795H228.685C228.847 51.0323 229.738 52.7339 231.359 54.0844C233.033 55.4349 235.113 56.1102 237.598 56.1102C240.191 56.1102 242.19 55.597 243.594 54.5706C245.053 53.4902 245.782 52.0587 245.782 50.276C245.782 48.6554 244.972 47.413 243.351 46.5486C241.731 45.6843 239.219 44.82 235.815 43.9557C232.52 43.0373 229.819 42.173 227.712 41.3627C225.66 40.4984 223.877 39.2019 222.364 37.4733C220.852 35.6906 220.096 33.3948 220.096 30.5857C220.096 28.1548 220.771 25.94 222.121 23.9413C223.472 21.8885 225.417 20.2679 227.956 19.0795C230.548 17.8911 233.574 17.2968 237.031 17.2968C242.109 17.2968 246.187 18.5933 249.266 21.1863C252.4 23.7252 254.074 27.2095 254.29 31.6391H245.053C244.891 29.4783 244.08 27.7767 242.622 26.5342C241.163 25.2378 239.192 24.5895 236.707 24.5895C234.276 24.5895 232.412 25.1027 231.116 26.1291C229.819 27.1015 229.171 28.4249 229.171 30.0996C229.171 31.288 229.603 32.2874 230.467 33.0977C231.332 33.908 232.412 34.5562 233.709 35.0424C235.005 35.4745 236.842 36.0147 239.219 36.663C242.46 37.5273 245.107 38.3916 247.16 39.2559C249.212 40.1203 250.968 41.4438 252.427 43.2264C253.885 44.9551 254.614 47.2239 254.614 50.0329C254.614 52.5719 253.939 54.8677 252.589 56.9205C251.238 58.9192 249.266 60.5128 246.673 61.7012C244.135 62.8357 241.109 63.4029 237.598 63.4029Z" fill="white"/>
<path d="M285.826 63.4029C281.612 63.4029 277.804 62.4575 274.4 60.5668C270.997 58.6221 268.323 55.9211 266.378 52.4638C264.434 48.9525 263.461 44.901 263.461 40.3093C263.461 35.7717 264.461 31.7472 266.459 28.2359C268.458 24.7246 271.186 22.0236 274.643 20.1329C278.101 18.2422 281.963 17.2968 286.231 17.2968C290.498 17.2968 294.361 18.2422 297.818 20.1329C301.275 22.0236 304.003 24.7246 306.002 28.2359C308.001 31.7472 309 35.7717 309 40.3093C309 44.847 307.974 48.8715 305.921 52.3828C303.868 55.8941 301.059 58.6221 297.494 60.5668C293.982 62.4575 290.093 63.4029 285.826 63.4029ZM285.826 55.624C288.202 55.624 290.417 55.0298 292.47 53.8413C294.577 52.6529 296.278 50.9243 297.575 48.6554C298.871 46.3326 299.52 43.5505 299.52 40.3093C299.52 37.0681 298.898 34.3131 297.656 32.0443C296.413 29.7214 294.766 27.9928 292.713 26.8584C290.66 25.6699 288.445 25.0757 286.069 25.0757C283.692 25.0757 281.504 25.6699 279.505 26.8584C277.506 27.9928 275.886 29.7214 274.643 32.0443C273.455 34.3131 272.861 37.0681 272.861 40.3093C272.861 43.5505 273.428 46.3326 274.562 48.6554C275.751 50.9783 277.317 52.7339 279.262 53.9224C281.261 55.0568 283.449 55.624 285.826 55.624Z" fill="white"/>
</svg>
