<svg width="20" height="20" viewBox="0 0 20 20" fill="none" xmlns="http://www.w3.org/2000/svg">
<path d="M18.525 8.2402C18.2674 7.93096 17.9451 7.68203 17.5808 7.51097C17.2165 7.33991 16.8191 7.25089 16.4167 7.2502H12.2367L12.75 5.93937C12.9635 5.36543 13.0346 4.74826 12.9572 4.1408C12.8798 3.53334 12.6562 2.95372 12.3056 2.45166C11.955 1.94961 11.4878 1.5401 10.9441 1.25827C10.4004 0.976436 9.79653 0.830692 9.18417 0.833537C9.00784 0.833905 8.83535 0.885123 8.6874 0.98105C8.53944 1.07698 8.4223 1.21354 8.35 1.37437L5.7375 7.2502H3.58333C2.85399 7.2502 2.15451 7.53994 1.63879 8.05566C1.12306 8.57138 0.833333 9.27086 0.833333 10.0002V16.4169C0.833333 17.1462 1.12306 17.8457 1.63879 18.3614C2.15451 18.8771 2.85399 19.1669 3.58333 19.1669H15.2525C15.8958 19.1667 16.5187 18.9409 17.0128 18.5289C17.5069 18.1169 17.8409 17.5447 17.9567 16.9119L19.1208 10.4952C19.1928 10.0986 19.1768 9.69109 19.0738 9.30141C18.9709 8.91173 18.7835 8.54944 18.525 8.2402ZM5.41667 17.3335H3.58333C3.34022 17.3335 3.10706 17.237 2.93515 17.0651C2.76324 16.8931 2.66667 16.66 2.66667 16.4169V10.0002C2.66667 9.75709 2.76324 9.52393 2.93515 9.35202C3.10706 9.18011 3.34022 9.08354 3.58333 9.08354H5.41667V17.3335ZM17.3333 10.1652L16.1692 16.5819C16.1301 16.7954 16.0166 16.9882 15.8487 17.1258C15.6808 17.2635 15.4696 17.3371 15.2525 17.3335H7.25V8.35937L9.74333 2.74937C9.99999 2.82419 10.2383 2.95141 10.4434 3.12299C10.6484 3.29457 10.8156 3.50678 10.9344 3.74624C11.0533 3.9857 11.1213 4.24719 11.134 4.51423C11.1467 4.78126 11.1039 5.04803 11.0083 5.2977L10.5225 6.60854C10.419 6.8856 10.384 7.18361 10.4206 7.47711C10.4572 7.77061 10.5643 8.0509 10.7327 8.29405C10.9011 8.5372 11.1259 8.736 11.3877 8.87347C11.6496 9.01095 11.9409 9.08302 12.2367 9.08354H16.4167C16.5513 9.08332 16.6844 9.11277 16.8064 9.16981C16.9284 9.22685 17.0363 9.31006 17.1225 9.41354C17.2108 9.51558 17.2755 9.63587 17.3119 9.7658C17.3484 9.89574 17.3557 10.0321 17.3333 10.1652Z" fill="#87919C"/>
</svg>
