<svg width="20" height="20" viewBox="0 0 20 20" fill="none" xmlns="http://www.w3.org/2000/svg">
<path d="M10 7.25016C9.81871 7.25016 9.64148 7.30392 9.49074 7.40465C9.33999 7.50537 9.2225 7.64854 9.15312 7.81604C9.08374 7.98353 9.06559 8.16785 9.10096 8.34566C9.13633 8.52348 9.22363 8.68681 9.35183 8.81501C9.48003 8.94321 9.64336 9.03051 9.82118 9.06588C9.99899 9.10125 10.1833 9.0831 10.3508 9.01372C10.5183 8.94434 10.6615 8.82685 10.7622 8.6761C10.8629 8.52536 10.9167 8.34813 10.9167 8.16683C10.9167 7.92371 10.8201 7.69056 10.6482 7.51865C10.4763 7.34674 10.2431 7.25016 10 7.25016ZM16.4167 0.833496H3.58334C2.854 0.833496 2.15453 1.12323 1.6388 1.63895C1.12307 2.15468 0.833344 2.85415 0.833344 3.5835V12.7502C0.833344 13.4795 1.12307 14.179 1.6388 14.6947C2.15453 15.2104 2.854 15.5002 3.58334 15.5002H14.2075L17.5992 18.901C17.6848 18.986 17.7864 19.0532 17.8981 19.0988C18.0098 19.1444 18.1294 19.1675 18.25 19.1668C18.3703 19.1699 18.4896 19.1448 18.5983 19.0935C18.7657 19.0247 18.909 18.9079 19.0102 18.7579C19.1113 18.6078 19.1658 18.4311 19.1667 18.2502V3.5835C19.1667 2.85415 18.8769 2.15468 18.3612 1.63895C17.8455 1.12323 17.146 0.833496 16.4167 0.833496ZM17.3333 16.041L15.2342 13.9327C15.1485 13.8477 15.0469 13.7805 14.9353 13.7349C14.8236 13.6893 14.704 13.6661 14.5833 13.6668H3.58334C3.34023 13.6668 3.10707 13.5703 2.93516 13.3983C2.76325 13.2264 2.66668 12.9933 2.66668 12.7502V3.5835C2.66668 3.34038 2.76325 3.10722 2.93516 2.93531C3.10707 2.76341 3.34023 2.66683 3.58334 2.66683H16.4167C16.6598 2.66683 16.893 2.76341 17.0649 2.93531C17.2368 3.10722 17.3333 3.34038 17.3333 3.5835V16.041ZM6.33334 7.25016C6.15204 7.25016 5.97482 7.30392 5.82407 7.40465C5.67333 7.50537 5.55583 7.64854 5.48645 7.81604C5.41707 7.98353 5.39892 8.16785 5.43429 8.34566C5.46966 8.52348 5.55696 8.68681 5.68516 8.81501C5.81336 8.94321 5.9767 9.03051 6.15451 9.06588C6.33233 9.10125 6.51664 9.0831 6.68414 9.01372C6.85164 8.94434 6.9948 8.82685 7.09552 8.6761C7.19625 8.52536 7.25001 8.34813 7.25001 8.16683C7.25001 7.92371 7.15343 7.69056 6.98152 7.51865C6.80962 7.34674 6.57646 7.25016 6.33334 7.25016ZM13.6667 7.25016C13.4854 7.25016 13.3081 7.30392 13.1574 7.40465C13.0067 7.50537 12.8892 7.64854 12.8198 7.81604C12.7504 7.98353 12.7323 8.16785 12.7676 8.34566C12.803 8.52348 12.8903 8.68681 13.0185 8.81501C13.1467 8.94321 13.31 9.03051 13.4878 9.06588C13.6657 9.10125 13.85 9.0831 14.0175 9.01372C14.185 8.94434 14.3281 8.82685 14.4289 8.6761C14.5296 8.52536 14.5833 8.34813 14.5833 8.16683C14.5833 7.92371 14.4868 7.69056 14.3149 7.51865C14.143 7.34674 13.9098 7.25016 13.6667 7.25016Z" fill="#87919C"/>
</svg>
