<svg width="124" height="124" viewBox="0 0 124 124" fill="none" xmlns="http://www.w3.org/2000/svg">
<path fill-rule="evenodd" clip-rule="evenodd" d="M6.15617 6.87834H116.967V117.689H6.15617V6.87834ZM0 0.722168H6.15617H116.967H123.123V6.87834V117.689V123.846H116.967H6.15617H0V117.689V6.87834V0.722168ZM38.4761 31.503C35.9261 31.503 33.8589 33.5702 33.8589 36.1201C33.8589 38.6701 35.9261 40.7373 38.4761 40.7373H84.6473C87.1973 40.7373 89.2644 38.6701 89.2644 36.1201C89.2644 33.5702 87.1973 31.503 84.6473 31.503H38.4761ZM33.8589 60.7448C33.8589 58.1948 35.9261 56.1277 38.4761 56.1277H63.1007C65.6507 56.1277 67.7178 58.1948 67.7178 60.7448C67.7178 63.2948 65.6507 65.3619 63.1007 65.3619H38.4761C35.9261 65.3619 33.8589 63.2948 33.8589 60.7448ZM38.4761 80.7523C35.9261 80.7523 33.8589 82.8195 33.8589 85.3695C33.8589 87.9195 35.9261 89.9866 38.4761 89.9866H47.7103C50.2603 89.9866 52.3274 87.9195 52.3274 85.3695C52.3274 82.8195 50.2603 80.7523 47.7103 80.7523H38.4761Z" fill="white"/>
</svg>
